<svg xmlns="http://www.w3.org/2000/svg" width="40" height="40" fill="none">
  <path fill="#006BFF"
    d="M26.4 25.2c-1.1 1-2.5 2.2-5 2.2h-1.6a6.5 6.5 0 0 1-4.6-1.9 6.4 6.4 0 0 1-1.8-4.5v-2c0-1.7.6-3.3 1.8-4.5a6.5 6.5 0 0 1 4.6-2h1.6c2.5 0 3.9 1.3 5 2.3 1.1 1 2.1 1.9 4.8 1.9l1.2-.1-.6-1.2-1.8-3a9.1 9.1 0 0 0-7.9-4.6h-3.5a9.1 9.1 0 0 0-7.9 4.6l-1.8 3a9.1 9.1 0 0 0 0 9.1l1.8 3.1a9.1 9.1 0 0 0 7.9 4.6H22a9.1 9.1 0 0 0 8-4.6l1.7-3 .6-1.2-1.2-.1c-2.7 0-3.7.9-4.8 1.9" />
  <path fill="#006BFF"
    d="M21.4 14.5h-1.6c-2.7 0-4.5 2-4.5 4.5v2c0 2.6 1.8 4.5 4.5 4.5h1.6c4 0 3.7-4 9.8-4h1.7a9 9 0 0 0 0-3h-1.7c-6.1 0-5.8-4-9.8-4" />
  <path fill="#006BFF"
    d="M36.4 23c-1-.7-2.2-1.2-3.5-1.4l-.5 1.8a6.7 6.7 0 0 1 2.9 1.2 15.6 15.6 0 1 1 0-9.2c-.9.6-1.9 1-3 1.2a9.4 9.4 0 0 1 .6 1.8c1.3-.2 2.5-.7 3.5-1.5 1-.7.8-1.6.6-2a17.5 17.5 0 1 0 0 10.3c.2-.5.4-1.4-.6-2.1" />
  <path fill="#0AE8F0"
    d="m32.4 16.6-1.2.1a6 6 0 0 1-4.8-1.9c-1.1-1-2.5-2.2-5-2.2h-1.6a6.5 6.5 0 0 0-4.6 1.9 6.4 6.4 0 0 0-1.8 4.5v2c0 1.7.6 3.3 1.8 4.6a6.5 6.5 0 0 0 4.6 1.8h1.6c2.5 0 3.9-1.2 5-2.2 1.1-1 2.1-1.9 4.8-1.9l1.2.1a9 9 0 0 0 .5-1.8l-1.7-.2c-6.1 0-5.8 4.1-9.8 4.1h-1.6c-2.7 0-4.5-2-4.5-4.5v-2c0-2.6 1.8-4.5 4.5-4.5h1.6c4 0 3.7 4 9.8 4h1.7v-.1l-.5-1.8" />
  <path fill="#0AE8F0"
    d="m32.4 16.6-1.2.1a6 6 0 0 1-4.8-1.9c-1.1-1-2.5-2.2-5-2.2h-1.6a6.5 6.5 0 0 0-4.6 1.9 6.4 6.4 0 0 0-1.8 4.5v2c0 1.7.6 3.3 1.8 4.6a6.5 6.5 0 0 0 4.6 1.8h1.6c2.5 0 3.9-1.2 5-2.2 1.1-1 2.1-1.9 4.8-1.9l1.2.1a9 9 0 0 0 .5-1.8l-1.7-.2c-6.1 0-5.8 4.1-9.8 4.1h-1.6c-2.7 0-4.5-2-4.5-4.5v-2c0-2.6 1.8-4.5 4.5-4.5h1.6c4 0 3.7 4 9.8 4h1.7v-.1l-.5-1.8" />
</svg>
