<svg xmlns="http://www.w3.org/2000/svg" width="40" height="40" fill="none">
  <rect width="35" height="35" x="2.5" y="2.5" fill="url(#a)" rx="5.3" />
  <rect width="35" height="35" x="2.5" y="2.5" fill="url(#b)" rx="5.3" />
  <rect width="35" height="35" x="2.5" y="2.5" fill="url(#c)" rx="5.3" />
  <path fill="#fff" d="M28.8 13.1a1.9 1.9 0 1 1-3.8 0 1.9 1.9 0 0 1 3.8 0Z" />
  <path fill="#fff" fill-rule="evenodd"
    d="M20 26.3a6.2 6.2 0 1 0 0-12.5 6.2 6.2 0 0 0 0 12.4Zm0-2.6a3.7 3.7 0 1 0 0-7.4 3.7 3.7 0 0 0 0 7.4Z"
    clip-rule="evenodd" />
  <path fill="#fff" fill-rule="evenodd"
    d="M7.5 19.5c0-4.2 0-6.3.8-7.9a7.5 7.5 0 0 1 3.3-3.3c1.6-.8 3.7-.8 7.9-.8h1c4.2 0 6.3 0 7.9.8 1.4.7 2.6 1.9 3.3 3.3.8 1.6.8 3.7.8 7.9v1c0 4.2 0 6.3-.8 7.9a7.5 7.5 0 0 1-3.3 3.3c-1.6.8-3.7.8-7.9.8h-1c-4.2 0-6.3 0-7.9-.8a7.5 7.5 0 0 1-3.3-3.3c-.8-1.6-.8-3.7-.8-7.9v-1Zm12-9.5h5.7c1.1.2 1.7.3 2 .5a5 5 0 0 1 2.3 2.2c.2.4.3 1 .4 2l.1 4.8v5.7c-.2 1.1-.3 1.7-.5 2a5 5 0 0 1-2.2 2.3c-.4.2-1 .3-2 .4l-4.8.1h-5.7c-1.1-.2-1.7-.3-2-.5a5 5 0 0 1-2.3-2.2c-.2-.4-.3-1-.4-2l-.1-4.8v-5.7c.2-1.1.3-1.7.5-2a5 5 0 0 1 2.2-2.3c.4-.2 1-.3 2-.4l4.8-.1Z"
    clip-rule="evenodd" />
  <defs>
    <radialGradient id="a" cx="0" cy="0" r="1"
      gradientTransform="rotate(-55.4 34.9 0) scale(31.8995)" gradientUnits="userSpaceOnUse">
      <stop stop-color="#B13589" />
      <stop offset=".8" stop-color="#C62F94" />
      <stop offset="1" stop-color="#8A3AC8" />
    </radialGradient>
    <radialGradient id="b" cx="0" cy="0" r="1"
      gradientTransform="rotate(-65.1 37.2 8.6) scale(28.2428)" gradientUnits="userSpaceOnUse">
      <stop stop-color="#E0E8B7" />
      <stop offset=".4" stop-color="#FB8A2E" />
      <stop offset=".7" stop-color="#E2425C" />
      <stop offset="1" stop-color="#E2425C" stop-opacity="0" />
    </radialGradient>
    <radialGradient id="c" cx="0" cy="0" r="1"
      gradientTransform="matrix(48.125 -6.875 1.47048 10.2934 .6 3.8)"
      gradientUnits="userSpaceOnUse">
      <stop offset=".2" stop-color="#406ADC" />
      <stop offset=".5" stop-color="#6A45BE" />
      <stop offset="1" stop-color="#6A45BE" stop-opacity="0" />
    </radialGradient>
  </defs>
</svg>
