<svg width="40" height="40" viewBox="0 0 40 40" fill="none" xmlns="http://www.w3.org/2000/svg">
  <path
    d="M20 2.5C10.1431 2.5 2.5 9.72314 2.5 19.475C2.5 24.5763 4.59125 28.9863 7.995 32.0313C8.27937 32.2851 8.45438 32.6438 8.46313 33.0288L8.55937 36.1438C8.56638 36.373 8.62958 36.597 8.74342 36.796C8.85725 36.9951 9.01824 37.1631 9.21222 37.2854C9.40621 37.4077 9.62726 37.4804 9.85595 37.4972C10.0846 37.5141 10.314 37.4745 10.5237 37.3819L13.9975 35.8507C14.2906 35.7194 14.6231 35.6976 14.9338 35.7807C16.5306 36.2182 18.2281 36.4544 20 36.4544C29.8569 36.4544 37.5 29.2313 37.5 19.4794C37.5 9.72751 29.8569 2.5 20 2.5Z"
    fill="url(#paint0_radial_2958_19829)" />
  <path
    d="M9.49104 24.4404L14.6317 16.2854C14.825 15.9784 15.08 15.7148 15.3804 15.5113C15.6808 15.3077 16.0201 15.1687 16.3769 15.1029C16.7338 15.0371 17.1004 15.046 17.4536 15.1291C17.8068 15.2122 18.139 15.3675 18.4291 15.5854L22.5198 18.6523C22.7024 18.789 22.9246 18.8626 23.1527 18.8618C23.3808 18.861 23.6025 18.7859 23.7841 18.6479L29.3054 14.4567C30.0404 13.8967 31.0029 14.7804 30.5129 15.5636L25.3679 23.7142C25.1745 24.0212 24.9196 24.2848 24.6192 24.4884C24.3188 24.6919 23.9794 24.8309 23.6226 24.8967C23.2657 24.9625 22.8991 24.9536 22.5459 24.8705C22.1927 24.7875 21.8605 24.6321 21.5704 24.4142L17.4798 21.3473C17.2972 21.2106 17.075 21.1371 16.8469 21.1379C16.6187 21.1386 16.3971 21.2137 16.2154 21.3517L10.6942 25.5429C9.95916 26.1029 8.99666 25.2236 9.49104 24.4404V24.4404Z"
    fill="white" />
  <defs>
    <radialGradient id="paint0_radial_2958_19829" cx="0" cy="0" r="1" gradientUnits="userSpaceOnUse"
      gradientTransform="translate(8.3625 37.5001) scale(38.5 38.5001)">
      <stop stop-color="#0099FF" />
      <stop offset="0.6" stop-color="#A033FF" />
      <stop offset="0.9" stop-color="#FF5280" />
      <stop offset="1" stop-color="#FF7061" />
    </radialGradient>
  </defs>
</svg>
