<svg xmlns="http://www.w3.org/2000/svg" width="40" height="40" fill="none">
  <g clip-path="url(#a)">
    <path fill="#017737" d="M37.5 20a17.5 17.5 0 1 0-35 0 17.5 17.5 0 0 0 35 0Z" />
    <path fill="#fff"
      d="M29.6 17c0 4.8-3 8-7.4 8-2.1 0-3.8-.8-4.5-1.9V31h-4.4V13.5c0-.3 0-.3-.3-.3h-1.5V9.4h3.7c1.7 0 2.1 1.5 2.2 2.2a5.8 5.8 0 0 1 5-2.5c4.3 0 7.2 3.2 7.2 8Zm-4.6.1c0-2.5-1.6-4.3-3.7-4.3-1.7 0-3.6 1.2-3.6 4.3 0 2.1 1.1 4.3 3.6 4.3C23 21.4 25 20 25 17Z" />
  </g>
  <defs>
    <clipPath id="a">
      <path fill="#fff" d="M2.5 2.5h35v35h-35z" />
    </clipPath>
  </defs>
</svg>
