<svg width="40" height="40" viewBox="0 0 40 40" fill="none" xmlns="http://www.w3.org/2000/svg">
  <path
    d="M33.1253 18.75C34.851 18.75 36.25 17.351 36.25 15.6252V15.6252C36.25 13.8995 34.8509 12.5005 33.1251 12.5005V12.5005C31.3992 12.5005 30 13.8996 30 15.6255V18.75H33.1253ZM24.375 18.75C26.1009 18.75 27.5 17.3508 27.5 15.625V6.87549C27.5 5.1496 26.1009 3.75049 24.375 3.75049V3.75049C22.6491 3.75049 21.25 5.1496 21.25 6.87549V15.6249C21.25 17.3508 22.6491 18.75 24.375 18.75V18.75Z"
    fill="#2EB67D" />
  <path
    d="M6.87473 21.2503C5.14899 21.2503 3.75 22.6493 3.75 24.375V24.375C3.75 26.1008 5.14912 27.4998 6.87487 27.4998V27.4998C8.60076 27.4998 10 26.1006 10 24.3748V21.2503H6.87473ZM15.625 21.2503C13.8991 21.2503 12.5 22.6494 12.5 24.3753V33.1248C12.5 34.8506 13.8991 36.2498 15.625 36.2498V36.2498C17.3509 36.2498 18.75 34.8506 18.75 33.1248V24.3753C18.75 22.6494 17.3509 21.2503 15.625 21.2503V21.2503Z"
    fill="#E01E5A" />
  <path
    d="M21.2505 33.1255C21.2505 34.8513 22.6495 36.2502 24.3753 36.2502V36.2502C26.101 36.2502 27.5 34.8511 27.5 33.1254V33.1254C27.5 31.3995 26.1009 30.0002 24.375 30.0002L21.2505 30.0002L21.2505 33.1255ZM21.2505 24.3752C21.2505 26.1011 22.6496 27.5002 24.3755 27.5002L33.125 27.5002C34.8509 27.5002 36.25 26.1011 36.25 24.3752V24.3752C36.25 22.6494 34.8509 21.2502 33.125 21.2502L24.3755 21.2502C22.6497 21.2502 21.2505 22.6494 21.2505 24.3752V24.3752Z"
    fill="#ECB22E" />
  <path
    d="M18.75 6.87473C18.75 5.14899 17.351 3.75 15.6252 3.75V3.75C13.8995 3.75 12.5005 5.14913 12.5005 6.87487V6.87487C12.5005 8.60076 13.8996 10 15.6255 10L18.75 10L18.75 6.87473ZM18.75 15.625C18.75 13.8991 17.3508 12.5 15.625 12.5L6.87549 12.5C5.1496 12.5 3.75049 13.8991 3.75049 15.625V15.625C3.75049 17.3509 5.1496 18.75 6.87549 18.75L15.6249 18.75C17.3508 18.75 18.75 17.3509 18.75 15.625V15.625Z"
    fill="#36C5F0" />
</svg>
