<svg xmlns="http://www.w3.org/2000/svg" width="40" height="40" fill="none">
  <path fill="url(#a)"
    d="M3.6 8C2.5 10 2.5 12.9 2.5 18.5v3c0 5.6 0 8.4 1 10.5A10 10 0 0 0 8 36.4c2.1 1.1 4.9 1.1 10.5 1.1h3c5.6 0 8.4 0 10.5-1a10 10 0 0 0 4.4-4.5c1.1-2.1 1.1-4.9 1.1-10.5v-3c0-5.6 0-8.4-1-10.5A10 10 0 0 0 32 3.6C30 2.5 27.1 2.5 21.5 2.5h-3c-5.6 0-8.4 0-10.5 1A10 10 0 0 0 3.6 8Z" />
  <path fill="url(#b)"
    d="M2.8 10.3c-.3 2-.3 4.4-.3 8.2v3c0 5.6 0 8.4 1 10.5A10 10 0 0 0 8 36.4c2.1 1.1 4.9 1.1 10.5 1.1h3c5.6 0 8.4 0 10.5-1a10 10 0 0 0 4.4-4.5c1.1-2.1 1.1-4.9 1.1-10.5v-3c0-5.6 0-8.4-1-10.5a10 10 0 0 0-4.3-4.3L2.8 10.3Z" />
  <path fill="url(#c)"
    d="M37.1 29.8c-.1.9-.4 1.6-.7 2.2a10 10 0 0 1-4.4 4.4c-2 1-4.7 1.1-10 1.1h-2v-4l17.1-3.7Z" />
  <path fill="url(#d)" d="M21.5 2.5h-6v5l16.7-3.8-.2-.1c-1.1-.6-2.5-.9-4.5-1l-6-.1Z" />
  <path fill="url(#e)" d="M37.5 21.7c0 3.8 0 6.3-.4 8.1l-5.9 1.3v-8.8l6.3-1.5v1Z" />
  <path fill="#fff" fill-rule="evenodd"
    d="M18.7 16.7c0-.8.6-1 1.7-1 1.6 0 3.6.4 5.1 1.2v-4.8c-1.7-.7-3.4-1-5-1-4.2 0-7 2.2-7 5.9 0 5.7 7.8 4.7 7.8 7.2 0 1-.8 1.3-2 1.3-1.7 0-3.9-.7-5.6-1.7v5c2 .7 3.8 1 5.6 1 4.3 0 7.2-2 7.2-5.7 0-6.2-7.8-5-7.8-7.4Z"
    clip-rule="evenodd" />
  <defs>
    <linearGradient id="a" x1="2.5" x2="14" y1="2.5" y2="10.6" gradientUnits="userSpaceOnUse">
      <stop stop-color="#392993" />
      <stop offset="1" stop-color="#4B47B9" />
    </linearGradient>
    <linearGradient id="b" x1="3.8" x2="29.2" y1="10.7" y2="31.7" gradientUnits="userSpaceOnUse">
      <stop stop-color="#594BB9" />
      <stop offset="1" stop-color="#60A8F2" />
    </linearGradient>
    <linearGradient id="c" x1="20.1" x2="37.5" y1="33.7" y2="37.5" gradientUnits="userSpaceOnUse">
      <stop stop-color="#61A2EF" />
      <stop offset="1" stop-color="#58E6FD" />
    </linearGradient>
    <linearGradient id="d" x1="15.5" x2="37.5" y1="5" y2="2.5" gradientUnits="userSpaceOnUse">
      <stop stop-color="#534EBE" />
      <stop offset="1" stop-color="#6875E2" />
    </linearGradient>
    <linearGradient id="e" x1="31.2" x2="37.5" y1="22.3" y2="29.9" gradientUnits="userSpaceOnUse">
      <stop stop-color="#71A5F3" />
      <stop offset="1" stop-color="#6CC3FA" />
    </linearGradient>
  </defs>
</svg>
