<svg width="36" height="35" viewBox="0 0 36 35" fill="none" xmlns="http://www.w3.org/2000/svg">
  <path
    d="M18 0C8.31667 0 0.5 7.81667 0.5 17.5C0.5 27.1833 8.31667 35 18 35C27.6833 35 35.5 27.1833 35.5 17.5C35.5 7.81667 27.6833 0 18 0ZM18 30.3333C10.8833 30.3333 5.16667 24.6167 5.16667 17.5C5.16667 10.3833 10.8833 4.66667 18 4.66667C25.1167 4.66667 30.8333 10.3833 30.8333 17.5C30.8333 24.6167 25.1167 30.3333 18 30.3333ZM25.9333 13.1833C25.9333 15.1667 24.3 16.8 22.3167 16.8C20.3333 16.8 18.7 15.1667 18.7 13.1833C18.7 11.2 20.3333 9.56667 22.3167 9.56667C24.3 9.56667 25.9333 11.2 25.9333 13.1833ZM25.9333 21.8167C25.9333 23.8 24.3 25.4333 22.3167 25.4333C20.3333 25.4333 18.7 23.8 18.7 21.8167C18.7 19.8333 20.3333 18.2 22.3167 18.2C24.3 18.2 25.9333 19.8333 25.9333 21.8167ZM17.3 21.8167C17.3 23.8 15.6667 25.4333 13.6833 25.4333C11.7 25.4333 10.0667 23.8 10.0667 21.8167C10.0667 19.8333 11.7 18.2 13.6833 18.2C15.6667 18.2 17.3 19.8333 17.3 21.8167ZM17.3 13.1833C17.3 15.1667 15.6667 16.8 13.6833 16.8C11.7 16.8 10.0667 15.1667 10.0667 13.1833C10.0667 11.2 11.7 9.56667 13.6833 9.56667C15.6667 9.56667 17.3 11.2 17.3 13.1833V13.1833Z"
    fill="#F22F46" />
</svg>
