<svg width="36" height="36" viewBox="0 0 36 36" fill="none" xmlns="http://www.w3.org/2000/svg">
  <path
    d="M2.81538 18C2.81538 24.0173 6.31539 29.2 11.3769 31.6635L4.13462 11.8212C3.26497 13.765 2.81542 15.8705 2.81538 18ZM18 33.1846C19.7635 33.1846 21.4596 32.875 23.0481 32.3231L22.9404 32.1212L18.2692 19.3327L13.7192 32.5654C15.0654 32.9692 16.5058 33.1846 18 33.1846ZM20.0865 10.8788L25.5788 27.2077L27.1 22.1462C27.7462 20.0462 28.2442 18.5385 28.2442 17.2327C28.2442 15.3481 27.5712 14.0558 27.0058 13.0596C26.225 11.7942 25.5115 10.7308 25.5115 9.49231C25.5115 8.09231 26.5615 6.8 28.0692 6.8H28.2577C25.4598 4.23142 21.7982 2.80906 18 2.81538C15.4851 2.81492 13.0096 3.43963 10.7961 4.63333C8.58256 5.82703 6.70051 7.55227 5.31923 9.65385L6.28846 9.68077C7.87692 9.68077 10.3269 9.47885 10.3269 9.47885C11.1615 9.43846 11.2558 10.6365 10.4346 10.7308C10.4346 10.7308 9.61346 10.8385 8.68462 10.8788L14.2308 27.3288L17.5558 17.3673L15.1865 10.8788C14.6558 10.8496 14.1261 10.8047 13.5981 10.7442C12.7769 10.6904 12.8712 9.43846 13.6923 9.47885C13.6923 9.47885 16.1962 9.68077 17.6904 9.68077C19.2788 9.68077 21.7288 9.47885 21.7288 9.47885C22.55 9.43846 22.6577 10.6365 21.8365 10.7308C21.8365 10.7308 21.0154 10.825 20.0865 10.8788ZM25.6327 31.125C27.9298 29.7893 29.8362 27.8742 31.1615 25.571C32.4867 23.2678 33.1843 20.6572 33.1846 18C33.1846 15.3615 32.5115 12.8846 31.3269 10.7173C31.5675 13.1017 31.2065 15.5084 30.2769 17.7173L25.6327 31.125ZM18 35.5C13.3587 35.5 8.90752 33.6563 5.62563 30.3744C2.34374 27.0925 0.5 22.6413 0.5 18C0.5 13.3587 2.34374 8.90752 5.62563 5.62563C8.90752 2.34374 13.3587 0.5 18 0.5C22.6413 0.5 27.0925 2.34374 30.3744 5.62563C33.6563 8.90752 35.5 13.3587 35.5 18C35.5 22.6413 33.6563 27.0925 30.3744 30.3744C27.0925 33.6563 22.6413 35.5 18 35.5Z"
    fill="#32373C" />
</svg>
